<svg width="379" height="102" viewBox="0 0 379 102" fill="none" xmlns="http://www.w3.org/2000/svg">
<g clip-path="url(#clip0_766_1532)">
<path d="M0 0C8.43351 14.892 16.867 29.682 25.3005 44.574L0.71126 79.662C0.508043 53.142 0.203217 26.52 0 0Z" fill="white"/>
<path d="M62.4895 41.514H71.0246L68.0779 55.386H63.6072L63.912 53.142C62.5911 55.284 60.0509 55.896 57.8155 55.896C51.1093 55.896 51.5157 51.102 53.3447 42.636C55.1737 34.068 57.8155 29.376 65.6393 29.376C70.3133 29.376 73.1584 31.722 71.8375 37.944H65.4361C65.7409 36.618 65.8426 35.7 65.7409 34.986C65.7409 34.272 65.2329 33.864 64.42 33.864C62.2863 33.864 61.6766 35.7 60.1525 42.636C58.73 49.572 58.5267 51.408 60.5589 51.408C61.9814 51.408 62.9975 50.49 63.912 46.002H61.575L62.4895 41.514Z" fill="white"/>
<path d="M76.5112 29.886H91.5493L90.4316 35.292H81.9981L81.0836 39.678H89.0091L87.8914 44.88H79.9659L78.8482 49.98H87.5866L86.4689 55.386H71.126L76.5112 29.886Z" fill="white"/>
<path d="M103.133 29.376C109.94 29.376 111.465 33.048 109.432 42.636C107.4 52.122 104.352 55.896 97.5442 55.896C90.7365 55.896 89.2123 52.224 91.2445 42.636C93.2767 33.15 96.3249 29.376 103.133 29.376ZM98.4587 51.408C100.491 51.408 101.101 49.572 102.523 42.636C103.946 35.7 104.149 33.864 102.117 33.864C100.084 33.864 99.4748 35.7 98.0523 42.636C96.6297 49.572 96.4265 51.408 98.4587 51.408Z" fill="white"/>
<path d="M114.919 29.886H125.283C130.364 29.886 131.685 32.742 130.77 36.72C130.059 40.086 128.23 42.33 125.182 42.84C128.332 43.146 128.84 45.186 128.128 48.654L127.62 50.796C127.316 52.122 127.011 53.856 127.214 54.366C127.316 54.672 127.417 54.978 127.824 55.182V55.488H120.711C120.406 54.162 120.914 51.714 121.118 50.592L121.524 48.858C122.134 46.002 121.727 45.186 120.101 45.186H118.374L116.24 55.386H109.636L115.021 29.886H114.919ZM119.187 40.698H120.508C122.438 40.698 123.556 39.474 123.963 37.638C124.369 35.598 123.759 34.68 121.829 34.68H120.508L119.187 40.698Z" fill="white"/>
<path d="M141.744 41.514H150.279L147.333 55.386H142.862L143.167 53.142C141.846 55.284 139.306 55.896 137.07 55.896C130.364 55.896 130.771 51.102 132.6 42.636C134.429 34.068 137.07 29.376 144.894 29.376C149.568 29.376 152.413 31.722 151.092 37.944H144.691C144.996 36.618 145.097 35.7 144.996 34.986C144.996 34.272 144.488 33.864 143.675 33.864C141.541 33.864 140.931 35.7 139.407 42.636C137.985 49.572 137.782 51.408 139.814 51.408C141.236 51.408 142.252 50.49 143.167 46.002H140.83L141.744 41.514Z" fill="white"/>
<path d="M155.563 29.886H162.168L156.782 55.386H150.178L155.563 29.886Z" fill="white"/>
<path d="M169.686 29.886H178.018L178.831 55.386H171.82L172.125 50.898H166.841L165.216 55.386H158.205L169.788 29.886H169.686ZM172.735 35.088L168.67 45.9H172.328L172.836 35.088H172.735Z" fill="white"/>
<path d="M191.532 29.886H200.982L200.474 44.982L206.367 29.886H215.817L210.431 55.386H204.233L208.298 36.414L200.779 55.386H196.003L196.511 36.414L192.447 55.386H186.249L191.634 29.886H191.532Z" fill="white"/>
<path d="M219.068 29.886H234.106L232.989 35.292H224.555L223.641 39.678H231.566L230.449 44.88H222.523L221.405 49.98H230.144L229.026 55.386H213.683L219.068 29.886Z" fill="white"/>
<path d="M245.791 37.638C246.401 34.782 246.096 33.864 244.775 33.864C242.743 33.864 242.133 35.7 240.711 42.636C239.288 49.572 239.085 51.408 241.117 51.408C242.743 51.408 243.454 49.98 244.47 45.186H250.872L250.465 47.124C248.941 54.264 244.47 55.998 240.203 55.998C232.785 55.998 231.972 52.224 233.903 42.738C235.935 32.946 238.882 29.478 245.791 29.478C251.786 29.478 253.31 32.64 252.294 37.536L251.989 39.168H245.588L245.893 37.74L245.791 37.638Z" fill="white"/>
<path d="M256.765 29.886H263.37L261.338 39.27H265.402L267.434 29.886H274.039L268.653 55.386H262.049L264.284 44.88H260.22L257.984 55.386H251.38L256.765 29.886Z" fill="white"/>
<path d="M281.761 29.886H290.092L290.905 55.386H283.894L284.199 50.898H278.916L277.29 55.386H270.279L281.862 29.886H281.761ZM284.809 35.088L280.744 45.9H284.402L284.91 35.088H284.809Z" fill="white"/>
<path d="M297.713 29.886H305.131L306.045 45.594L309.398 29.886H315.596L310.211 55.386H302.997L301.879 39.678L298.526 55.386H292.328L297.713 29.886Z" fill="white"/>
<path d="M318.95 29.886H325.554L320.169 55.386H313.564L318.95 29.886Z" fill="white"/>
<path d="M337.341 37.638C337.95 34.782 337.645 33.864 336.324 33.864C334.292 33.864 333.683 35.7 332.26 42.636C330.838 49.572 330.634 51.408 332.667 51.408C334.292 51.408 335.004 49.98 336.02 45.186H342.421L342.015 47.124C340.49 54.264 336.02 55.998 331.752 55.998C324.335 55.998 323.522 52.224 325.452 42.738C327.485 32.946 330.431 29.478 337.341 29.478C343.336 29.478 344.86 32.64 343.844 37.536L343.539 39.168H337.137L337.442 37.74L337.341 37.638Z" fill="white"/>
<path d="M352.48 29.886H360.812L361.625 55.386H354.614L354.919 50.898H349.635L348.01 55.386H340.999L352.582 29.886H352.48ZM355.529 35.088L351.464 45.9H355.122L355.63 35.088H355.529Z" fill="white"/>
<path d="M368.433 29.886H375.038L370.77 49.98H378.899L377.781 55.386H363.048L368.433 29.886Z" fill="white"/>
<path d="M379 70.074H20.5249V74.154H379V70.074Z" fill="#991627"/>
<path d="M14.6318 0.612061C23.2686 18.7681 31.9053 37.0261 40.542 55.1821C31.9053 70.7881 23.2686 86.3941 14.6318 102V0.612061Z" fill="#991627"/>
</g>
<defs>
<clipPath id="clip0_766_1532">
<rect width="379" height="102" fill="white"/>
</clipPath>
</defs>
</svg>
